<?xml version="1.0" encoding="UTF-8" standalone="no"?>
<!-- Created with Inkscape (http://www.inkscape.org/) -->

<svg
   xmlns:dc="http://purl.org/dc/elements/1.1/"
   xmlns:cc="http://creativecommons.org/ns#"
   xmlns:rdf="http://www.w3.org/1999/02/22-rdf-syntax-ns#"
   xmlns:svg="http://www.w3.org/2000/svg"
   xmlns="http://www.w3.org/2000/svg"
   xmlns:xlink="http://www.w3.org/1999/xlink"
   xmlns:sodipodi="http://sodipodi.sourceforge.net/DTD/sodipodi-0.dtd"
   xmlns:inkscape="http://www.inkscape.org/namespaces/inkscape"
   width="82.034584mm"
   height="44.853367mm"
   viewBox="0 0 82.034584 44.853367"
   version="1.1"
   id="svg8"
   inkscape:version="0.92.1 r"
   sodipodi:docname="bank_example.svg">
  <defs
     id="defs2">
    <marker
       inkscape:stockid="Arrow1Mend"
       orient="auto"
       refY="0"
       refX="0"
       id="marker20666"
       style="overflow:visible"
       inkscape:isstock="true">
      <path
         id="path20664"
         d="M 0,0 5,-5 -12.5,0 5,5 Z"
         style="fill:#000000;fill-opacity:1;fill-rule:evenodd;stroke:#000000;stroke-width:1.00000003pt;stroke-opacity:1"
         transform="matrix(-0.4,0,0,-0.4,-4,0)"
         inkscape:connector-curvature="0" />
    </marker>
    <marker
       inkscape:isstock="true"
       style="overflow:visible"
       id="marker20626"
       refX="0"
       refY="0"
       orient="auto"
       inkscape:stockid="Arrow1Mend"
       inkscape:collect="always">
      <path
         transform="matrix(-0.4,0,0,-0.4,-4,0)"
         style="fill:#000000;fill-opacity:1;fill-rule:evenodd;stroke:#000000;stroke-width:1.00000003pt;stroke-opacity:1"
         d="M 0,0 5,-5 -12.5,0 5,5 Z"
         id="path20624"
         inkscape:connector-curvature="0" />
    </marker>
    <marker
       inkscape:stockid="Arrow1Mend"
       orient="auto"
       refY="0"
       refX="0"
       id="Arrow1Mend"
       style="overflow:visible"
       inkscape:isstock="true"
       inkscape:collect="always">
      <path
         id="path20319"
         d="M 0,0 5,-5 -12.5,0 5,5 Z"
         style="fill:#000000;fill-opacity:1;fill-rule:evenodd;stroke:#000000;stroke-width:1.00000003pt;stroke-opacity:1"
         transform="matrix(-0.4,0,0,-0.4,-4,0)"
         inkscape:connector-curvature="0" />
    </marker>
    <marker
       inkscape:stockid="Arrow1Lend"
       orient="auto"
       refY="0"
       refX="0"
       id="Arrow1Lend"
       style="overflow:visible"
       inkscape:isstock="true">
      <path
         id="path20313"
         d="M 0,0 5,-5 -12.5,0 5,5 Z"
         style="fill:#000000;fill-opacity:1;fill-rule:evenodd;stroke:#000000;stroke-width:1.00000003pt;stroke-opacity:1"
         transform="matrix(-0.8,0,0,-0.8,-10,0)"
         inkscape:connector-curvature="0" />
    </marker>
    <symbol
       id="symbol8517">
      <title
         id="title8513">Person</title>
      <path
         inkscape:connector-curvature="0"
         d="M 6.35,6.35 C 7.5194583,6.35 8.4666667,5.4001458 8.4666667,4.2333333 8.4666667,3.063875 7.5194583,2.1166667 6.35,2.1166667 5.1805417,2.1166667 4.2333333,3.063875 4.2333333,4.2333333 4.2333333,5.4001458 5.1805417,6.35 6.35,6.35 Z m 0,1.0583333 c -1.4102292,0 -4.2333333,0.7064375 -4.2333333,2.1166667 v 1.058333 H 10.583333 V 9.525 C 10.583333,8.1147708 7.7602292,7.4083333 6.35,7.4083333 Z"
         style="stroke:none;stroke-width:0.26458332"
         id="path8515" />
    </symbol>
    <symbol
       id="symbol8433">
      <title
         id="title8429">Domain</title>
      <path
         inkscape:connector-curvature="0"
         d="M 6.35,3.7041667 V 1.5875 H 1.0583333 v 9.525 H 11.641667 V 3.7041667 Z M 3.175,10.054167 H 2.1166667 V 8.9958333 H 3.175 Z m 0,-2.116667 H 2.1166667 V 6.8791667 H 3.175 Z m 0,-2.1166667 H 2.1166667 V 4.7625 H 3.175 Z m 0,-2.1166666 H 2.1166667 V 2.6458333 H 3.175 Z M 5.2916667,10.054167 H 4.2333333 V 8.9958333 h 1.0583334 z m 0,-2.116667 H 4.2333333 V 6.8791667 h 1.0583334 z m 0,-2.1166667 H 4.2333333 V 4.7625 h 1.0583334 z m 0,-2.1166666 H 4.2333333 V 2.6458333 H 5.2916667 Z M 10.583333,10.054167 H 6.35 V 8.9958333 H 7.4083333 V 7.9375 H 6.35 V 6.8791667 H 7.4083333 V 5.8208333 H 6.35 V 4.7625 h 4.233333 z M 9.525,5.8208333 H 8.4666667 V 6.8791667 H 9.525 Z m 0,2.1166667 H 8.4666667 V 8.9958333 H 9.525 Z"
         style="stroke:none;stroke-width:0.26458332"
         id="path8431" />
    </symbol>
    <symbol
       id="symbol15197">
      <title
         id="title15193">Perm Identity</title>
      <path
         inkscape:connector-curvature="0"
         d="m 6.35,3.1220833 c 0.6138333,0 1.11125,0.4974167 1.11125,1.11125 0,0.6138334 -0.4974167,1.11125 -1.11125,1.11125 -0.6138333,0 -1.11125,-0.4974166 -1.11125,-1.11125 0,-0.6138333 0.4974167,-1.11125 1.11125,-1.11125 m 0,4.7625 c 1.5742708,0 3.2279167,0.7699375 3.2279167,1.11125 V 9.5779167 H 3.1220833 V 8.9958333 c 0,-0.3413125 1.6536459,-1.11125 3.2279167,-1.11125 m 0,-5.7679166 c -1.1694583,0 -2.1166667,0.9472083 -2.1166667,2.1166666 C 4.2333333,5.4001458 5.1805417,6.35 6.35,6.35 7.5194583,6.35 8.4666667,5.4001458 8.4666667,4.2333333 8.4666667,3.063875 7.5194583,2.1166667 6.35,2.1166667 Z m 0,4.7625 c -1.4102292,0 -4.2333333,0.7064375 -4.2333333,2.1166666 V 10.583333 H 10.583333 V 8.9958333 C 10.583333,7.5856042 7.7602292,6.8791667 6.35,6.8791667 Z"
         style="stroke:none;stroke-width:0.26458332"
         id="path15195" />
    </symbol>
    <symbol
       id="building-o"
       class="Web-Application-Icons">
      <title
         id="title10767">Building Outlined</title>
      <path
         style="stroke-width:0.01322917"
         inkscape:connector-curvature="0"
         d="m 5.08,17.356667 v 0.846666 q 0,0.171979 -0.1256771,0.297657 -0.1256771,0.125677 -0.2976562,0.125677 H 3.81 q -0.1719792,0 -0.2976563,-0.125677 -0.125677,-0.125678 -0.125677,-0.297657 v -0.846666 q 0,-0.17198 0.125677,-0.297657 Q 3.6380208,16.933333 3.81,16.933333 h 0.8466667 q 0.1719791,0 0.2976562,0.125677 Q 5.08,17.184687 5.08,17.356667 Z M 5.08,13.97 v 0.846667 q 0,0.171979 -0.1256771,0.297656 Q 4.8286458,15.24 4.6566667,15.24 H 3.81 q -0.1719792,0 -0.2976563,-0.125677 -0.125677,-0.125677 -0.125677,-0.297656 V 13.97 q 0,-0.171979 0.125677,-0.297656 Q 3.6380208,13.546667 3.81,13.546667 h 0.8466667 q 0.1719791,0 0.2976562,0.125677 Q 5.08,13.798021 5.08,13.97 Z m 3.3866667,0 v 0.846667 q 0,0.171979 -0.1256771,0.297656 Q 8.2153125,15.24 8.0433333,15.24 H 7.1966667 Q 7.0246875,15.24 6.8990104,15.114323 6.7733333,14.988646 6.7733333,14.816667 V 13.97 q 0,-0.171979 0.1256771,-0.297656 0.1256771,-0.125677 0.2976563,-0.125677 h 0.8466666 q 0.1719792,0 0.2976563,0.125677 Q 8.4666667,13.798021 8.4666667,13.97 Z M 5.08,10.583333 V 11.43 q 0,0.171979 -0.1256771,0.297656 -0.1256771,0.125677 -0.2976562,0.125677 H 3.81 q -0.1719792,0 -0.2976563,-0.125677 Q 3.3866667,11.601979 3.3866667,11.43 v -0.846667 q 0,-0.171979 0.125677,-0.297656 Q 3.6380208,10.16 3.81,10.16 h 0.8466667 q 0.1719791,0 0.2976562,0.125677 Q 5.08,10.411354 5.08,10.583333 Z m 10.16,6.773334 v 0.846666 q 0,0.171979 -0.125677,0.297657 -0.125677,0.125677 -0.297656,0.125677 H 13.97 q -0.171979,0 -0.297656,-0.125677 -0.125677,-0.125678 -0.125677,-0.297657 v -0.846666 q 0,-0.17198 0.125677,-0.297657 0.125677,-0.125677 0.297656,-0.125677 h 0.846667 q 0.171979,0 0.297656,0.125677 Q 15.24,17.184687 15.24,17.356667 Z M 11.853333,13.97 v 0.846667 q 0,0.171979 -0.125677,0.297656 Q 11.601979,15.24 11.43,15.24 h -0.846667 q -0.171979,0 -0.297656,-0.125677 Q 10.16,14.988646 10.16,14.816667 V 13.97 q 0,-0.171979 0.125677,-0.297656 0.125677,-0.125677 0.297656,-0.125677 H 11.43 q 0.171979,0 0.297656,0.125677 0.125677,0.125677 0.125677,0.297656 z M 8.4666667,10.583333 V 11.43 q 0,0.171979 -0.1256771,0.297656 -0.1256771,0.125677 -0.2976563,0.125677 H 7.1966667 q -0.1719792,0 -0.2976563,-0.125677 Q 6.7733333,11.601979 6.7733333,11.43 v -0.846667 q 0,-0.171979 0.1256771,-0.297656 Q 7.0246875,10.16 7.1966667,10.16 h 0.8466666 q 0.1719792,0 0.2976563,0.125677 0.1256771,0.125677 0.1256771,0.297656 z M 5.08,7.1966667 V 8.0433333 Q 5.08,8.2153125 4.9543229,8.3409896 4.8286458,8.4666667 4.6566667,8.4666667 H 3.81 q -0.1719792,0 -0.2976563,-0.1256771 Q 3.3866667,8.2153125 3.3866667,8.0433333 V 7.1966667 q 0,-0.1719792 0.125677,-0.2976563 Q 3.6380208,6.7733333 3.81,6.7733333 h 0.8466667 q 0.1719791,0 0.2976562,0.1256771 Q 5.08,7.0246875 5.08,7.1966667 Z M 15.24,13.97 v 0.846667 q 0,0.171979 -0.125677,0.297656 Q 14.988646,15.24 14.816667,15.24 H 13.97 q -0.171979,0 -0.297656,-0.125677 -0.125677,-0.125677 -0.125677,-0.297656 V 13.97 q 0,-0.171979 0.125677,-0.297656 0.125677,-0.125677 0.297656,-0.125677 h 0.846667 q 0.171979,0 0.297656,0.125677 Q 15.24,13.798021 15.24,13.97 Z M 11.853333,10.583333 V 11.43 q 0,0.171979 -0.125677,0.297656 -0.125677,0.125677 -0.297656,0.125677 h -0.846667 q -0.171979,0 -0.297656,-0.125677 Q 10.16,11.601979 10.16,11.43 v -0.846667 q 0,-0.171979 0.125677,-0.297656 Q 10.411354,10.16 10.583333,10.16 H 11.43 q 0.171979,0 0.297656,0.125677 0.125677,0.125677 0.125677,0.297656 z M 8.4666667,7.1966667 v 0.8466666 q 0,0.1719792 -0.1256771,0.2976563 Q 8.2153125,8.4666667 8.0433333,8.4666667 H 7.1966667 q -0.1719792,0 -0.2976563,-0.1256771 Q 6.7733333,8.2153125 6.7733333,8.0433333 V 7.1966667 q 0,-0.1719792 0.1256771,-0.2976563 0.1256771,-0.1256771 0.2976563,-0.1256771 h 0.8466666 q 0.1719792,0 0.2976563,0.1256771 0.1256771,0.1256771 0.1256771,0.2976563 z M 5.08,3.81 V 4.6566667 Q 5.08,4.8286458 4.9543229,4.9543229 4.8286458,5.08 4.6566667,5.08 H 3.81 Q 3.6380208,5.08 3.5123437,4.9543229 3.3866667,4.8286458 3.3866667,4.6566667 V 3.81 q 0,-0.1719792 0.125677,-0.2976563 Q 3.6380208,3.3866667 3.81,3.3866667 h 0.8466667 q 0.1719791,0 0.2976562,0.125677 Q 5.08,3.6380208 5.08,3.81 Z m 10.16,6.773333 V 11.43 q 0,0.171979 -0.125677,0.297656 -0.125677,0.125677 -0.297656,0.125677 H 13.97 q -0.171979,0 -0.297656,-0.125677 Q 13.546667,11.601979 13.546667,11.43 v -0.846667 q 0,-0.171979 0.125677,-0.297656 Q 13.798021,10.16 13.97,10.16 h 0.846667 q 0.171979,0 0.297656,0.125677 Q 15.24,10.411354 15.24,10.583333 Z M 11.853333,7.1966667 v 0.8466666 q 0,0.1719792 -0.125677,0.2976563 Q 11.601979,8.4666667 11.43,8.4666667 h -0.846667 q -0.171979,0 -0.297656,-0.1256771 Q 10.16,8.2153125 10.16,8.0433333 V 7.1966667 q 0,-0.1719792 0.125677,-0.2976563 0.125677,-0.1256771 0.297656,-0.1256771 H 11.43 q 0.171979,0 0.297656,0.1256771 0.125677,0.1256771 0.125677,0.2976563 z M 8.4666667,3.81 v 0.8466667 q 0,0.1719791 -0.1256771,0.2976562 Q 8.2153125,5.08 8.0433333,5.08 H 7.1966667 Q 7.0246875,5.08 6.8990104,4.9543229 6.7733333,4.8286458 6.7733333,4.6566667 V 3.81 q 0,-0.1719792 0.1256771,-0.2976563 0.1256771,-0.125677 0.2976563,-0.125677 h 0.8466666 q 0.1719792,0 0.2976563,0.125677 Q 8.4666667,3.6380208 8.4666667,3.81 Z M 15.24,7.1966667 v 0.8466666 q 0,0.1719792 -0.125677,0.2976563 -0.125677,0.1256771 -0.297656,0.1256771 H 13.97 q -0.171979,0 -0.297656,-0.1256771 Q 13.546667,8.2153125 13.546667,8.0433333 V 7.1966667 q 0,-0.1719792 0.125677,-0.2976563 Q 13.798021,6.7733333 13.97,6.7733333 h 0.846667 q 0.171979,0 0.297656,0.1256771 Q 15.24,7.0246875 15.24,7.1966667 Z M 11.853333,3.81 v 0.8466667 q 0,0.1719791 -0.125677,0.2976562 Q 11.601979,5.08 11.43,5.08 H 10.583333 Q 10.411354,5.08 10.285677,4.9543229 10.16,4.8286458 10.16,4.6566667 V 3.81 q 0,-0.1719792 0.125677,-0.2976563 0.125677,-0.125677 0.297656,-0.125677 H 11.43 q 0.171979,0 0.297656,0.125677 Q 11.853333,3.6380208 11.853333,3.81 Z m 3.386667,0 v 0.8466667 q 0,0.1719791 -0.125677,0.2976562 Q 14.988646,5.08 14.816667,5.08 H 13.97 Q 13.798021,5.08 13.672344,4.9543229 13.546667,4.8286458 13.546667,4.6566667 V 3.81 q 0,-0.1719792 0.125677,-0.2976563 0.125677,-0.125677 0.297656,-0.125677 h 0.846667 q 0.171979,0 0.297656,0.125677 Q 15.24,3.6380208 15.24,3.81 Z m -3.386667,18.203333 h 5.08 V 1.6933333 H 1.6933333 V 22.013333 h 5.08 V 19.05 q 0,-0.171979 0.1256771,-0.297656 0.1256771,-0.125677 0.2976563,-0.125677 H 11.43 q 0.171979,0 0.297656,0.125677 0.125677,0.125677 0.125677,0.297656 z M 18.626667,0.84666667 V 22.86 q 0,0.343958 -0.251355,0.595312 Q 18.123958,23.706667 17.78,23.706667 H 0.84666667 q -0.34395834,0 -0.5953125,-0.251355 Q 0,23.203958 0,22.86 V 0.84666667 Q 0,0.50270833 0.25135417,0.25135417 0.50270833,0 0.84666667,0 H 17.78 q 0.343958,0 0.595312,0.25135417 0.251355,0.25135416 0.251355,0.5953125 z"
         id="path10769" />
    </symbol>
    <symbol
       id="eur"
       class="Currency-Icons">
      <title
         id="title11187">Euro (EUR)</title>
      <path
         style="stroke-width:0.01322917"
         inkscape:connector-curvature="0"
         d="m 12.911667,17.290521 0.46302,2.103437 q 0.03969,0.15875 -0.03969,0.297657 -0.07938,0.138906 -0.224896,0.191822 l -0.06615,0.01323 q -0.05292,0.02646 -0.138906,0.0463 -0.08599,0.01984 -0.211667,0.05953 -0.125677,0.03969 -0.284427,0.07276 -0.15875,0.03307 -0.337343,0.06615 -0.178594,0.03307 -0.396875,0.06615 -0.218282,0.03307 -0.443178,0.05953 -0.224895,0.02646 -0.482864,0.03969 Q 10.490729,20.32 10.239375,20.32 7.14375,20.32 4.8286458,18.593594 2.5135417,16.867187 1.6801042,13.943542 H 0.42333333 q -0.17197916,0 -0.29765625,-0.125677 Q 0,13.692187 0,13.520208 V 12.025312 Q 0,11.853333 0.12567708,11.727656 0.25135417,11.601979 0.42333333,11.601979 H 1.2964583 Q 1.27,10.847917 1.3096875,10.212917 H 0.42333333 q -0.18520833,0 -0.30427083,-0.119063 Q 0,9.9747917 0,9.7895833 V 8.2814583 Q 0,8.09625 0.1190625,7.9771875 0.238125,7.858125 0.42333333,7.858125 H 1.7197917 Q 2.6061458,5.08 4.9410937,3.3866667 7.2760417,1.6933333 10.239375,1.6933333 q 1.349375,0 2.566458,0.3042709 0.145521,0.039687 0.264584,0.1984375 0.07937,0.1455208 0.03969,0.3175 L 12.54125,4.6169792 q -0.03969,0.1719791 -0.185208,0.2579687 -0.145521,0.08599 -0.3175,0.033073 l -0.05292,-0.013229 q -0.05292,-0.013229 -0.152135,-0.033073 l -0.231511,-0.046302 q 0,0 -0.297656,-0.046302 -0.297656,-0.046302 -0.343958,-0.039688 -0.0463,0.00661 -0.383646,-0.033073 -0.337344,-0.039688 -0.390261,-0.013229 -1.6668747,0 -2.9897913,0.8466667 Q 5.87375,6.3764583 5.2122917,7.858125 h 6.1912503 q 0.211666,0 0.330729,0.15875 0.132291,0.15875 0.0926,0.3439583 l -0.3175,1.508125 q -0.06615,0.3439587 -0.423333,0.3439587 H 4.6302083 q -0.039687,0.489479 0,1.389062 h 6.0721877 q 0.198437,0 0.330729,0.15875 0.119062,0.15875 0.07938,0.357188 l -0.3175,1.481666 q -0.02646,0.145521 -0.145521,0.24474 -0.119062,0.09922 -0.264583,0.09922 H 5.2652083 q 0.635,1.547812 1.9777604,2.45401 1.3427605,0.906198 3.0228643,0.906198 0.238125,0 0.47625,-0.01984 0.238125,-0.01984 0.443177,-0.0463 0.205052,-0.02646 0.390261,-0.05953 0.185208,-0.03307 0.324114,-0.06615 0.138907,-0.03307 0.24474,-0.05953 l 0.15875,-0.03969 0.06615,-0.02646 q 0.171979,-0.06615 0.343958,0.02646 0.15875,0.0926 0.198438,0.277813 z"
         id="path11189" />
    </symbol>
    <symbol
       id="database"
       class="Web-Application-Icons">
      <title
         id="title11697">Database</title>
      <path
         style="stroke-width:0.01322917"
         inkscape:connector-curvature="0"
         d="m 10.16,10.16 q 3.135312,0 5.860521,-0.5688542 Q 18.745729,9.0222917 20.32,7.9110417 V 10.16 q 0,0.912812 -1.362604,1.693333 -1.362604,0.780521 -3.704167,1.236927 -2.341562,0.456407 -5.093229,0.456407 -2.7516667,0 -5.0932292,-0.456407 Q 2.7252083,12.633854 1.3626042,11.853333 0,11.072812 0,10.16 V 7.9110417 Q 1.5742708,9.0222917 4.2994792,9.5911458 7.0246875,10.16 10.16,10.16 Z m 0,10.16 q 3.135312,0 5.860521,-0.568854 Q 18.745729,19.182292 20.32,18.071042 V 20.32 q 0,0.912812 -1.362604,1.693333 -1.362604,0.780521 -3.704167,1.236927 -2.341562,0.456407 -5.093229,0.456407 -2.7516667,0 -5.0932292,-0.456407 Q 2.7252083,22.793854 1.3626042,22.013333 0,21.232812 0,20.32 v -2.248958 q 1.5742708,1.11125 4.2994792,1.680104 Q 7.0246875,20.32 10.16,20.32 Z m 0,-5.08 q 3.135312,0 5.860521,-0.568854 Q 18.745729,14.102292 20.32,12.991042 V 15.24 q 0,0.912812 -1.362604,1.693333 -1.362604,0.780521 -3.704167,1.236927 -2.341562,0.456407 -5.093229,0.456407 -2.7516667,0 -5.0932292,-0.456407 Q 2.7252083,17.713854 1.3626042,16.933333 0,16.152812 0,15.24 v -2.248958 q 1.5742708,1.11125 4.2994792,1.680104 Q 7.0246875,15.24 10.16,15.24 Z M 10.16,0 Q 12.911667,0 15.253229,0.45640625 17.594792,0.9128125 18.957396,1.6933333 20.32,2.4738542 20.32,3.3866667 V 5.08 q 0,0.9128125 -1.362604,1.6933333 -1.362604,0.7805209 -3.704167,1.2369271 -2.341562,0.4564063 -5.093229,0.4564063 -2.7516667,0 -5.0932292,-0.4564063 Q 2.7252083,7.5538542 1.3626042,6.7733333 0,5.9928125 0,5.08 V 3.3866667 Q 0,2.4738542 1.3626042,1.6933333 2.7252083,0.9128125 5.0667708,0.45640625 7.4083333,0 10.16,0 Z"
         id="path11699" />
    </symbol>
  </defs>
  <sodipodi:namedview
     id="base"
     pagecolor="#ffffff"
     bordercolor="#666666"
     borderopacity="1.0"
     inkscape:pageopacity="0.0"
     inkscape:pageshadow="2"
     inkscape:zoom="0.98994949"
     inkscape:cx="300.39456"
     inkscape:cy="-76.411948"
     inkscape:document-units="mm"
     inkscape:current-layer="layer1"
     showgrid="false"
     showguides="false"
     inkscape:window-width="1920"
     inkscape:window-height="1051"
     inkscape:window-x="0"
     inkscape:window-y="0"
     inkscape:window-maximized="1"
     fit-margin-left="1"
     fit-margin-top="1"
     fit-margin-right="1"
     fit-margin-bottom="1">
    <sodipodi:guide
       position="9.5369859,52.487525"
       orientation="0,1"
       id="guide20750"
       inkscape:locked="false" />
  </sodipodi:namedview>
  <metadata
     id="metadata5">
    <rdf:RDF>
      <cc:Work
         rdf:about="">
        <dc:format>image/svg+xml</dc:format>
        <dc:type
           rdf:resource="http://purl.org/dc/dcmitype/StillImage" />
        <dc:title></dc:title>
      </cc:Work>
    </rdf:RDF>
  </metadata>
  <g
     inkscape:label="Layer 1"
     inkscape:groupmode="layer"
     id="layer1"
     transform="translate(-42.623727,-75.108109)">
    <use
       id="use16648"
       style="fill:#000000;stroke:#000000"
       xlink:href="#symbol8517"
       x="0"
       y="0"
       width="100%"
       height="100%"
       transform="matrix(0.82391106,0,0,0.82391106,48.84972,110.24175)" />
    <use
       id="use17807"
       style="fill:#000000;stroke:#000000"
       xlink:href="#symbol15197"
       x="0"
       y="0"
       width="100%"
       height="100%"
       transform="matrix(0.82391106,0,0,0.82391106,95.096897,110.24175)" />
    <use
       id="use20200"
       xlink:href="#building-o"
       x="0"
       y="0"
       width="100%"
       height="100%"
       transform="matrix(0.42356159,0,0,0.42356159,50.136784,81.56522)" />
    <use
       id="use20250"
       xlink:href="#database"
       x="0"
       y="0"
       width="100%"
       height="100%"
       transform="matrix(0.37101624,0,0,0.37101624,50.31203,96.86009)" />
    <use
       id="use20200-3"
       xlink:href="#building-o"
       x="0"
       y="0"
       width="100%"
       height="100%"
       transform="matrix(0.42356158,0,0,0.42356158,96.112599,81.56522)" />
    <use
       id="use20250-6"
       xlink:href="#database"
       x="0"
       y="0"
       width="100%"
       height="100%"
       transform="matrix(0.37101623,0,0,0.37101623,96.694412,96.631949)" />
    <text
       xml:space="preserve"
       style="font-style:normal;font-weight:normal;font-size:3.34535551px;line-height:0.9800846px;font-family:sans-serif;letter-spacing:0px;word-spacing:0px;fill:#000000;fill-opacity:1;stroke:none;stroke-width:0.03920339px;stroke-linecap:butt;stroke-linejoin:miter;stroke-opacity:1"
       x="48.475075"
       y="110.20865"
       id="text20284"><tspan
         sodipodi:role="line"
         id="tspan20282"
         x="48.475075"
         y="110.20865"
         style="stroke-width:0.03920339px">-1000€</tspan></text>
    <text
       xml:space="preserve"
       style="font-style:normal;font-weight:normal;font-size:3.34535551px;line-height:0.9800846px;font-family:sans-serif;letter-spacing:0px;word-spacing:0px;fill:#000000;fill-opacity:1;stroke:none;stroke-width:0.03920339px;stroke-linecap:butt;stroke-linejoin:miter;stroke-opacity:1"
       x="93.090393"
       y="109.49756"
       id="text20284-7"><tspan
         sodipodi:role="line"
         id="tspan20282-5"
         x="93.090393"
         y="109.49756"
         style="stroke-width:0.03920339px">+1000€</tspan></text>
    <path
       style="fill:none;fill-rule:evenodd;stroke:#000000;stroke-width:0.21833642;stroke-linecap:butt;stroke-linejoin:miter;stroke-miterlimit:4;stroke-dasharray:none;stroke-opacity:1;marker-end:url(#Arrow1Mend)"
       d="M 54.081555,96.86009 V 91.883614"
       id="path20304"
       inkscape:connector-curvature="0"
       sodipodi:nodetypes="cc" />
    <path
       style="fill:none;fill-rule:evenodd;stroke:#000000;stroke-width:0.21799313px;stroke-linecap:butt;stroke-linejoin:miter;stroke-opacity:1;marker-end:url(#marker20626)"
       d="M 57.915391,86.047912 H 95.968875"
       id="path20306"
       inkscape:connector-curvature="0"
       sodipodi:nodetypes="cc" />
    <path
       style="fill:none;fill-rule:evenodd;stroke:#000000;stroke-width:0.21799313px;stroke-linecap:butt;stroke-linejoin:miter;stroke-opacity:1;marker-end:url(#marker20666)"
       d="m 100.26124,90.453235 v 6.054946"
       id="path20308"
       inkscape:connector-curvature="0" />
    <text
       xml:space="preserve"
       style="font-style:normal;font-weight:normal;font-size:3.34535551px;line-height:0.9800846px;font-family:sans-serif;letter-spacing:0px;word-spacing:0px;fill:#000000;fill-opacity:1;stroke:none;stroke-width:0.03920339px;stroke-linecap:butt;stroke-linejoin:miter;stroke-opacity:1"
       x="59.239128"
       y="117.54774"
       id="text20284-3"><tspan
         sodipodi:role="line"
         id="tspan20282-56"
         x="59.239128"
         y="117.54774"
         style="stroke-width:0.03920339px">Alice</tspan></text>
    <text
       xml:space="preserve"
       style="font-style:normal;font-weight:normal;font-size:3.34535551px;line-height:0.9800846px;font-family:sans-serif;letter-spacing:0px;word-spacing:0px;fill:#000000;fill-opacity:1;stroke:none;stroke-width:0.03920339px;stroke-linecap:butt;stroke-linejoin:miter;stroke-opacity:1"
       x="87.429794"
       y="117.42143"
       id="text20284-3-2"
       inkscape:transform-center-x="-14.714537"
       inkscape:transform-center-y="-2.9428613e-06"><tspan
         sodipodi:role="line"
         id="tspan20282-56-9"
         x="87.429794"
         y="117.42143"
         style="stroke-width:0.03920339px">Bob</tspan></text>
    <text
       xml:space="preserve"
       style="font-style:normal;font-weight:normal;font-size:3.34535551px;line-height:0.9800846px;font-family:sans-serif;letter-spacing:0px;word-spacing:0px;fill:#000000;fill-opacity:1;stroke:none;stroke-width:0.03920339px;stroke-linecap:butt;stroke-linejoin:miter;stroke-opacity:1"
       x="43.597591"
       y="78.649796"
       id="text20284-3-1"><tspan
         sodipodi:role="line"
         id="tspan20282-56-2"
         x="43.597591"
         y="78.649796"
         style="stroke-width:0.03920339px">Alice's bank</tspan></text>
    <text
       xml:space="preserve"
       style="font-style:normal;font-weight:normal;font-size:3.34535551px;line-height:0.9800846px;font-family:sans-serif;letter-spacing:0px;word-spacing:0px;fill:#000000;fill-opacity:1;stroke:none;stroke-width:0.03920339px;stroke-linecap:butt;stroke-linejoin:miter;stroke-opacity:1"
       x="90.668556"
       y="78.727654"
       id="text20284-3-7"><tspan
         sodipodi:role="line"
         id="tspan20282-56-0"
         x="90.668556"
         y="78.727654"
         style="stroke-width:0.03920339px">Bob's bank</tspan></text>
    <text
       xml:space="preserve"
       style="font-style:normal;font-weight:normal;font-size:3.34535551px;line-height:0.9800846px;font-family:sans-serif;letter-spacing:0px;word-spacing:0px;fill:#000000;fill-opacity:1;stroke:none;stroke-width:0.03920339px;stroke-linecap:butt;stroke-linejoin:miter;stroke-opacity:1"
       x="58.885818"
       y="100.80199"
       id="text20284-3-1-9"><tspan
         sodipodi:role="line"
         id="tspan20282-56-2-3"
         x="58.885818"
         y="100.80199"
         style="line-height:5.99481106px;stroke-width:0.03920339px">Alice's bank</tspan><tspan
         sodipodi:role="line"
         x="58.885818"
         y="104.28944"
         style="stroke-width:0.03920339px"
         id="tspan20906">ledger</tspan></text>
    <text
       xml:space="preserve"
       style="font-style:normal;font-weight:normal;font-size:3.34535551px;line-height:0.9800846px;font-family:sans-serif;letter-spacing:0px;word-spacing:0px;fill:#000000;fill-opacity:1;stroke:none;stroke-width:0.03920339px;stroke-linecap:butt;stroke-linejoin:miter;stroke-opacity:1"
       x="105.23925"
       y="100.60577"
       id="text20284-3-1-9-6"><tspan
         sodipodi:role="line"
         id="tspan20282-56-2-3-0"
         x="105.23925"
         y="100.60577"
         style="line-height:5.99481106px;stroke-width:0.03920339px">Bob's bank</tspan><tspan
         sodipodi:role="line"
         x="105.23925"
         y="104.09322"
         style="stroke-width:0.03920339px"
         id="tspan20906-6">ledger</tspan></text>
  </g>
</svg>
